<svg width="587" height="626" viewBox="0 0 587 626" fill="none" xmlns="http://www.w3.org/2000/svg">
<g clip-path="url(#clip0_32_2)">
<path d="M104.31 227.47H33.38V335.87H104.31V227.47Z" fill="white"/>
<path d="M104.31 380.87H33.38V460.53H104.31V380.87Z" fill="white"/>
<path d="M212.74 335.86V282.2L311.28 282.22L311.27 282.23C313.52 282.23 315.69 282.3 317.81 282.41C318.31 282.43 318.81 282.45 319.3 282.48C321.37 282.61 323.39 282.76 325.34 282.99C325.62 283.02 325.88 283.06 326.15 283.09C332.34 283.83 337.93 285.07 342.92 286.78C343.22 286.88 343.52 286.97 343.81 287.08C345.33 287.63 346.78 288.23 348.18 288.86C348.52 289.02 348.85 289.18 349.18 289.34C355.15 292.22 360.02 295.96 363.77 300.54C363.99 300.82 364.22 301.09 364.44 301.37C365.27 302.44 366.05 303.55 366.75 304.7C366.88 304.92 367 305.15 367.13 305.38C369.34 309.16 370.94 313.4 371.92 318.09C371.99 318.39 372.06 318.68 372.11 318.98C372.39 320.44 372.6 321.96 372.76 323.52C372.8 323.94 372.83 324.35 372.87 324.78C373 326.39 373.1 328.01 373.12 329.71L373.1 335.86H443.99L444.06 317.14C444.05 313.94 443.85 310.87 443.6 307.84C443.53 307.04 443.47 306.25 443.39 305.47C443.09 302.54 442.69 299.69 442.16 296.92C442.05 296.35 441.91 295.8 441.79 295.23C439.93 286.39 436.92 278.39 432.75 271.25C432.5 270.83 432.28 270.4 432.03 269.98C430.69 267.79 429.23 265.71 427.67 263.7C427.26 263.17 426.84 262.65 426.41 262.13C419.34 253.48 410.15 246.43 398.89 241.01C398.27 240.7 397.64 240.4 397 240.11C394.35 238.91 391.61 237.78 388.75 236.74C388.2 236.54 387.63 236.37 387.07 236.18C377.66 232.95 367.13 230.61 355.46 229.21C354.95 229.15 354.45 229.07 353.93 229.01C350.25 228.59 346.44 228.29 342.54 228.06C341.61 228.01 340.67 227.96 339.74 227.91C335.73 227.72 331.64 227.58 327.41 227.58L212.74 227.54V227.48H141.8V335.88H212.74V335.86Z" fill="white"/>
<path d="M368.03 380.86C367.71 381.49 367.37 382.12 367.01 382.72C366.73 383.18 366.42 383.62 366.13 384.07C365.48 385.07 364.81 386.05 364.07 386.98C363.6 387.57 363.07 388.12 362.56 388.68C361.91 389.4 361.27 390.14 360.56 390.81C359.75 391.58 358.85 392.3 357.96 393.01C357.45 393.41 356.99 393.84 356.47 394.22C345.73 402.06 329.82 405.91 308.99 405.64H212.74V380.85H141.8V460.52H212.73V460.37H323.08C362.36 460.88 392.36 453.63 412.61 438.84C413.61 438.12 414.48 437.31 415.43 436.55C417.11 435.2 418.81 433.86 420.34 432.39C421.69 431.12 422.88 429.73 424.12 428.37C425.08 427.31 426.08 426.27 426.97 425.15C428.37 423.4 429.62 421.54 430.85 419.66C431.4 418.81 432 417.99 432.51 417.12C433.81 414.93 434.96 412.64 436.04 410.29C436.34 409.62 436.68 408.97 436.97 408.29C438.08 405.7 439.02 402.99 439.87 400.22C440.03 399.71 440.2 399.2 440.34 398.68C441.19 395.71 441.87 392.6 442.43 389.42C442.5 389.03 442.56 388.65 442.63 388.28C443.02 385.87 443.33 383.39 443.55 380.86H368.03Z" fill="white"/>
<path d="M466.62 309.83C466.84 310.31 466.84 310.83 466.87 311.3C466.91 311.86 466.96 312.42 467.02 312.97C467.24 315.04 467.52 317.06 467.89 319.01C467.96 319.41 468.07 319.81 468.15 320.2C469.35 325.92 471.25 331.14 473.83 335.86H736.26C733.09 333.46 729.59 331.33 725.73 329.47C725.28 329.25 724.85 329.04 724.4 328.83C722.53 327.98 720.59 327.18 718.57 326.45C718.18 326.31 717.78 326.18 717.38 326.05C710.73 323.76 703.29 322.12 695.05 321.12C694.69 321.08 694.34 321.02 693.97 320.98C691.37 320.69 688.68 320.47 685.92 320.31C685.27 320.27 684.6 320.24 683.93 320.21C681.1 320.08 678.21 319.98 675.22 319.97H650.99L573.24 319.94C573.24 319.92 563.16 319.92 563.16 319.92C561.92 319.92 560.71 319.88 559.54 319.82C559.27 319.8 558.99 319.79 558.71 319.78C557.57 319.71 556.44 319.62 555.36 319.5C555.21 319.48 555.06 319.46 554.91 319.44C545.35 318.29 535.42 315.25 531.39 305.6C529.03 299.96 529.43 293.23 532.44 287.91C538.57 277.04 553.21 275.55 564.42 275.69C564.42 275.66 573.23 275.68 573.23 275.68C573.23 275.61 650.98 275.61 650.98 275.61C650.98 275.68 659.8 275.67 659.8 275.67C671.33 275.55 680.13 277.68 686.08 282.02C686.37 282.23 686.63 282.47 686.91 282.69C687.4 283.08 687.9 283.48 688.35 283.91C688.74 284.28 689.09 284.69 689.46 285.09C689.74 285.4 690.03 285.71 690.3 286.03C690.71 286.54 691.08 287.09 691.44 287.64C691.6 287.89 691.77 288.13 691.92 288.38C692.31 289.02 692.64 289.7 692.95 290.39C693.04 290.58 693.14 290.78 693.22 290.98C693.55 291.74 693.82 292.53 694.08 293.35C694.12 293.5 694.18 293.65 694.22 293.8C694.47 294.68 694.67 295.58 694.84 296.52C694.86 296.63 694.88 296.74 694.9 296.85C695.06 297.83 695.17 298.85 695.23 299.9C695.24 300.02 695.27 306.63 695.27 306.63H757.59L757.51 286.2C757.51 286.1 757.48 286.01 757.48 285.91C757.32 283.39 757.05 280.94 756.67 278.58C756.63 278.31 756.57 278.04 756.53 277.77C756.14 275.52 755.65 273.33 755.06 271.23C754.96 270.87 754.84 270.51 754.73 270.14C754.13 268.18 753.46 266.27 752.68 264.43C752.48 263.95 752.24 263.49 752.03 263.02C751.26 261.36 750.45 259.74 749.54 258.19C749.18 257.57 748.76 256.99 748.37 256.4C747.5 255.07 746.62 253.75 745.63 252.52C745.01 251.73 744.29 251 743.61 250.24C742.74 249.28 741.89 248.3 740.94 247.4C739.86 246.37 738.66 245.42 737.47 244.46C736.8 243.92 736.18 243.35 735.48 242.85C721.16 232.4 699.97 227.27 672.22 227.64H552.03C524.28 227.28 503.09 232.41 488.77 242.85C488.07 243.36 487.45 243.94 486.78 244.46C485.59 245.41 484.39 246.36 483.32 247.4C482.37 248.3 481.52 249.28 480.65 250.24C479.97 250.99 479.26 251.73 478.64 252.52C477.65 253.75 476.77 255.08 475.9 256.4C475.51 257 475.1 257.57 474.73 258.19C473.81 259.74 473 261.36 472.23 263.02C472.01 263.49 471.78 263.95 471.58 264.43C470.8 266.26 470.13 268.17 469.53 270.14C469.42 270.5 469.3 270.86 469.2 271.23C468.61 273.33 468.11 275.52 467.73 277.77C467.69 278.04 467.63 278.31 467.59 278.58C467.21 280.89 466.96 283.29 466.79 285.75C466.65 285.75 466.57 304.75 466.57 304.75C466.57 305.34 466.64 305.9 466.65 306.47L466.62 309.83Z" fill="white"/>
<path d="M757.58 380.86H691.9C693.23 383.03 694.16 385.43 694.51 387.93C694.6 388.58 694.65 389.25 694.67 389.91C694.76 395.33 692.08 400.59 688.09 404.26C680.54 411.21 669.62 412.43 659.8 412.3C659.8 412.33 650.99 412.31 650.99 412.31C650.99 412.38 573.24 412.38 573.24 412.38C573.24 412.31 564.42 412.32 564.42 412.32C552.89 412.44 544.09 410.31 538.14 405.97C537.85 405.76 537.59 405.52 537.31 405.3C536.82 404.91 536.32 404.51 535.87 404.08C535.48 403.71 535.13 403.3 534.76 402.9C534.48 402.59 534.19 402.28 533.92 401.96C533.51 401.45 533.14 400.9 532.78 400.35C532.62 400.1 532.45 399.86 532.3 399.61C531.91 398.97 531.58 398.29 531.27 397.6C531.18 397.41 531.08 397.21 531 397.01C530.67 396.25 530.4 395.46 530.15 394.64C530.11 394.49 530.05 394.34 530.01 394.19C529.76 393.31 529.56 392.41 529.39 391.47C529.38 391.36 529.35 391.25 529.33 391.14C529.17 390.16 529.06 389.14 529 388.09C528.99 387.97 528.96 381.36 528.96 381.36H466.64L466.71 401.79C466.71 401.89 466.74 401.98 466.74 402.08C466.9 404.6 467.17 407.05 467.55 409.41C467.59 409.69 467.65 409.95 467.69 410.22C468.08 412.47 468.57 414.66 469.16 416.76C469.26 417.12 469.38 417.48 469.49 417.84C470.09 419.8 470.76 421.71 471.54 423.55C471.74 424.03 471.98 424.49 472.19 424.96C472.96 426.62 473.77 428.24 474.68 429.79C475.04 430.41 475.46 430.99 475.85 431.58C476.72 432.91 477.6 434.23 478.59 435.46C479.21 436.25 479.93 436.98 480.6 437.74C481.47 438.7 482.32 439.68 483.27 440.58C484.35 441.61 485.55 442.56 486.74 443.52C487.41 444.06 488.03 444.63 488.72 445.13C503.04 455.58 524.23 460.71 551.98 460.34C551.98 460.41 672.16 460.34 672.16 460.34C699.91 460.7 721.1 455.57 735.42 445.13C736.12 444.62 736.74 444.04 737.41 443.52C738.6 442.57 739.8 441.62 740.87 440.58C741.82 439.68 742.67 438.7 743.54 437.74C744.22 436.99 744.93 436.25 745.55 435.46C746.54 434.23 747.42 432.9 748.29 431.58C748.68 430.98 749.09 430.41 749.46 429.79C750.38 428.24 751.19 426.62 751.96 424.96C752.18 424.49 752.41 424.03 752.61 423.55C753.39 421.72 754.06 419.81 754.66 417.84C754.77 417.48 754.89 417.12 754.99 416.76C755.58 414.66 756.07 412.47 756.46 410.22C756.5 409.95 756.56 409.68 756.6 409.41C756.98 407.1 757.23 404.7 757.4 402.24C757.5 402.24 757.58 383.24 757.58 383.24C757.58 382.89 757.54 382.56 757.53 382.21L757.58 380.86Z" fill="white"/>
<path d="M34.51 367.5H33.91V350.5H34.51V367.5Z" fill="white"/>
<path d="M64.73 366.92V350.5H65.33V367.49H64.3L54.34 351.26L54.32 367.49H53.7V350.5H54.64L64.73 366.92Z" fill="white"/>
<path d="M94.7301 351.1H89.0701V367.49H88.4701V351.1H82.8101V350.5H94.7401V351.1H94.7301Z" fill="white"/>
<path d="M112.8 358.71H121.59V359.36H112.8V366.9H122.3V367.5H112.2V350.5H122.3V351.1H112.8V358.71Z" fill="white"/>
<path d="M140.45 367.5V350.5H141.05V366.89H149.55V367.49H140.45V367.5Z" fill="white"/>
<path d="M166.97 367.5V350.5H167.57V366.89H176.07V367.49H166.97V367.5Z" fill="white"/>
<path d="M194.11 367.5H193.51V350.5H194.11V367.5Z" fill="white"/>
<path d="M212.93 355.02C212.93 351.9 215.91 350.27 218.88 350.27C221.02 350.27 223.13 351.11 224.14 352.74L223.59 353.1C222.73 351.54 220.78 350.87 218.84 350.87C216.18 350.87 213.54 352.24 213.54 355.02V362.92C213.54 365.75 216.2 367.17 218.89 367.17C221.55 367.17 224.27 365.75 224.27 362.92V359.7H219.06V359.12H224.87V362.91C224.87 366.13 221.87 367.73 218.89 367.73C215.91 367.73 212.94 366.12 212.94 362.91V355.02H212.93Z" fill="white"/>
<path d="M243.81 358.71H252.6V359.36H243.81V366.9H253.31V367.5H243.21V350.5H253.31V351.1H243.81V358.71Z" fill="white"/>
<path d="M282.53 366.92V350.5H283.13V367.49H282.1L272.14 351.26L272.12 367.49H271.5V350.5H272.44L282.53 366.92Z" fill="white"/>
<path d="M312.53 351.1H306.87V367.49H306.27V351.1H300.61V350.5H312.54V351.1H312.53Z" fill="white"/>
<path d="M355.77 350.5C358.75 350.5 361.24 351.84 361.24 355.06V362.96C361.24 366.15 358.74 367.5 355.77 367.5H350.03V350.5H355.77ZM355.77 366.9C358.46 366.9 360.64 365.77 360.64 362.96V355.06C360.64 352.23 358.46 351.1 355.77 351.1H350.63V366.89H355.77V366.9Z" fill="white"/>
<path d="M380.73 367.5H380.13V350.5H380.73V367.5Z" fill="white"/>
<path d="M399.55 355.02C399.55 351.9 402.53 350.27 405.5 350.27C407.64 350.27 409.75 351.11 410.76 352.74L410.21 353.1C409.35 351.54 407.4 350.87 405.46 350.87C402.8 350.87 400.16 352.24 400.16 355.02V362.92C400.16 365.75 402.82 367.17 405.51 367.17C408.18 367.17 410.89 365.75 410.89 362.92V359.7H405.68V359.12H411.49V362.91C411.49 366.13 408.49 367.73 405.51 367.73C402.53 367.73 399.56 366.12 399.56 362.91V355.02H399.55Z" fill="white"/>
<path d="M430.44 367.5H429.84V350.5H430.44V367.5Z" fill="white"/>
<path d="M459.84 351.1H454.18V367.49H453.58V351.1H447.92V350.5H459.85V351.1H459.84Z" fill="white"/>
<path d="M474.21 367.5H473.56L479.85 350.51H480.81L487.1 367.5H486.45L484.19 361.43H476.46L474.21 367.5ZM480.28 351.08L476.68 360.82H483.98L480.38 351.08H480.28Z" fill="white"/>
<path d="M504.45 367.5V350.5H505.05V366.89H513.55V367.49H504.45V367.5Z" fill="white"/>
<path d="M555.86 358.52C558.64 359.07 561.67 360.2 561.43 363.54C561.24 366.28 558.5 367.74 555.72 367.74C553.63 367.74 551.4 366.92 550.13 365L550.68 364.76C551.78 366.34 553.78 367.16 555.77 367.16C558.12 367.16 560.45 366.03 560.79 363.54C561.01 360.52 558.37 359.68 555.73 359.1C553.19 358.57 550.14 357.61 550.28 354.4C550.38 351.59 553.04 350.27 555.75 350.27C557.93 350.27 559.97 351.04 561.03 352.89L560.48 353.11C559.59 351.57 557.65 350.85 555.75 350.85C553.35 350.85 551.05 351.86 550.88 354.4C550.68 356.91 553.12 357.97 555.86 358.52Z" fill="white"/>
<path d="M583.92 367.5H583.32V360.76L577.51 350.51H578.23L583.63 360.09L589.2 350.51H589.94L583.92 360.76V367.5Z" fill="white"/>
</g>
<defs>
<clipPath id="clip0_32_2">
<rect width="1121" height="862" fill="white" transform="translate(-165 -87)"/>
</clipPath>
</defs>
</svg>
