<svg width="113" height="113" viewBox="0 0 113 113" fill="none" xmlns="http://www.w3.org/2000/svg">
<path d="M56.5 0L57.3222 50.4178C57.3497 52.1057 57.3635 52.9496 57.8817 53.1643C58.3999 53.3789 59.0064 52.7919 60.2194 51.6178L96.4515 16.5485L61.3822 52.7806C60.2081 53.9936 59.6211 54.6001 59.8357 55.1183C60.0504 55.6365 60.8943 55.6503 62.5822 55.6778L113 56.5L62.5822 57.3222C60.8943 57.3497 60.0504 57.3635 59.8357 57.8817C59.6211 58.3999 60.2081 59.0064 61.3822 60.2194L96.4515 96.4515L60.2194 61.3822C59.0064 60.2081 58.3999 59.6211 57.8817 59.8357C57.3635 60.0504 57.3497 60.8943 57.3222 62.5822L56.5 113L55.6778 62.5822C55.6503 60.8943 55.6365 60.0504 55.1183 59.8357C54.6001 59.6211 53.9936 60.2081 52.7806 61.3822L16.5485 96.4515L51.6178 60.2194C52.7919 59.0064 53.3789 58.3999 53.1643 57.8817C52.9496 57.3635 52.1057 57.3497 50.4178 57.3222L0 56.5L50.4178 55.6778C52.1057 55.6503 52.9496 55.6365 53.1643 55.1183C53.3789 54.6001 52.7919 53.9936 51.6178 52.7806L16.5485 16.5485L52.7806 51.6178C53.9936 52.7919 54.6001 53.3789 55.1183 53.1643C55.6365 52.9496 55.6503 52.1057 55.6778 50.4178L56.5 0Z" fill="#FF4632"/>
</svg>
