<svg width="580" height="346" viewBox="0 0 580 346" fill="none" xmlns="http://www.w3.org/2000/svg">
<mask id="path-1-inside-1_2_1270" fill="white">
<path fill-rule="evenodd" clip-rule="evenodd" d="M580 31C580 13.8792 566.121 0 549 0H31C13.8792 0 0 13.8792 0 31V315C0 332.121 13.8792 346 31 346H448.27C465.39 346 479.27 332.121 479.27 315V282C479.27 264.879 493.149 251 510.27 251H549C566.121 251 580 237.121 580 220V31Z"/>
</mask>
<path d="M31 1H549V-1H31V1ZM1 315V31H-1V315H1ZM448.27 345H31V347H448.27V345ZM480.27 315V282H478.27V315H480.27ZM510.27 252H549V250H510.27V252ZM579 31V220H581V31H579ZM549 252C566.673 252 581 237.673 581 220H579C579 236.569 565.569 250 549 250V252ZM480.27 282C480.27 265.431 493.701 252 510.27 252V250C492.596 250 478.27 264.327 478.27 282H480.27ZM448.27 347C465.943 347 480.27 332.673 480.27 315H478.27C478.27 331.569 464.838 345 448.27 345V347ZM-1 315C-1 332.673 13.3269 347 31 347V345C14.4315 345 1 331.569 1 315H-1ZM549 1C565.569 1 579 14.4315 579 31H581C581 13.3269 566.673 -1 549 -1V1ZM31 -1C13.3269 -1 -1 13.3269 -1 31H1C1 14.4315 14.4315 1 31 1V-1Z" fill="#0D083F" mask="url(#path-1-inside-1_2_1270)"/>
</svg>
